<svg width="90" height="90" viewBox="0 0 90 90" fill="none" xmlns="http://www.w3.org/2000/svg">
<circle cx="45" cy="45" r="45" fill="black"/>
<path fill-rule="evenodd" clip-rule="evenodd" d="M45.0001 25C57.656 25 68 33.3246 68 43.4574C68 48.8866 65.2011 53.5902 60.5768 56.9686C50.9629 65.1719 45.6085 67.4631 45.6085 67.4631C43.5397 68.5502 43.1747 67.946 43.418 66.0165C43.6614 64.8102 43.9048 63.2424 43.9048 63.2424C44.1481 62.1552 42.9313 61.9148 42.4444 61.7935H42.201C30.7619 60.7086 22 52.8669 22 43.4574C22 33.3246 32.344 25 45.0001 25Z" fill="white"/>
<path fill-rule="evenodd" clip-rule="evenodd" d="M56.362 47.2344V44.8817H61V43.1183H56.362V40.8817H61V39H54.1654V49H61V47.2344H56.362ZM49.6496 39V45.1183L44.7676 39H42.9368V49H45.1339V43L50.0157 49H51.8465V39H49.6496ZM38.4211 49H40.6179V39H38.4211V49ZM30 49H37.2007V47.1183H32.1968V39H30V49Z" fill="#231F20"/>
</svg>
