<svg width="90" height="90" viewBox="0 0 90 90" fill="none" xmlns="http://www.w3.org/2000/svg">
<circle cx="45" cy="45" r="45" fill="black"/>
<path fill-rule="evenodd" clip-rule="evenodd" d="M34.7875 25.0479H56.2125C61.0358 25.0479 64.9618 28.983 64.9618 33.8184V55.1816C64.9618 60.017 61.0358 63.9521 56.2125 63.9521H34.7875C29.9642 63.9521 26.0382 60.017 26.0382 55.1816V33.8184C26.0382 28.983 29.9642 25.0479 34.7875 25.0479ZM45.4438 36.0679H45.5562C50.1551 36.0679 53.9689 39.8902 53.9689 44.5C53.9689 49.2226 50.1551 53.0449 45.5562 53.0449H45.4438C40.8449 53.0449 37.0311 49.2226 37.0311 44.5C37.0311 39.8902 40.8449 36.0679 45.4438 36.0679ZM45.4438 31.6816H45.5562C52.5108 31.6816 58.3437 37.5279 58.3437 44.5C58.3437 51.5828 52.5108 57.3184 45.5562 57.3184H45.4438C38.4892 57.3184 32.7684 51.5828 32.7684 44.5C32.7684 37.5279 38.4892 31.6816 45.4438 31.6816ZM58.1193 29.2086C59.5777 29.2086 60.8114 30.4451 60.8114 31.9072C60.8114 33.3693 59.5777 34.6058 58.1193 34.6058C56.549 34.6058 55.4271 33.3693 55.4271 31.9072C55.4271 30.4451 56.549 29.2086 58.1193 29.2086ZM34.6754 21H56.3246C63.2792 21 69 26.7335 69 33.7056V55.2944C69 62.2666 63.2792 68 56.3246 68H34.6754C27.7208 68 22 62.2666 22 55.2944V33.7056C22 26.7335 27.7208 21 34.6754 21Z" fill="white"/>
</svg>
