<svg width="90" height="90" viewBox="0 0 90 90" fill="none" xmlns="http://www.w3.org/2000/svg">
<circle cx="45" cy="45" r="45" fill="black"/>
<path fill-rule="evenodd" clip-rule="evenodd" d="M30.6175 28.5605C35.2861 28.1867 40.7975 28 45 28C49.2002 28 54.6175 28.1867 59.3803 28.5605C64.8894 29.0274 67.6911 29.9614 68.4397 35.4725C68.8117 37.9945 69 41.4505 69 45C69 48.5495 68.8117 52.099 68.4397 54.5275C67.6911 60.1319 64.8894 60.9726 59.3803 61.4395C54.6175 61.9067 49.2002 62 45 62C40.7975 62 35.2861 61.9067 30.6175 61.4395C25.1083 60.9726 22.2125 60.1319 21.4662 54.5275C21.186 52.099 21 48.5495 21 45C21 41.4505 21.186 37.9945 21.4662 35.4725C22.2125 29.9614 25.1083 29.0274 30.6175 28.5605Z" fill="white"/>
<path fill-rule="evenodd" clip-rule="evenodd" d="M40 38L53 44.9548L40 52V38Z" fill="#231F20"/>
</svg>
