<svg width="66" height="66" viewBox="0 0 66 66" fill="none" xmlns="http://www.w3.org/2000/svg">
<path fill-rule="evenodd" clip-rule="evenodd" d="M13.1665 0.000226918H52.3191C59.5954 0.000226918 65.4856 6.00715 65.4856 13.1673V52.4355C65.4856 59.7121 59.5954 65.6025 52.3191 65.6025H13.1665C5.89042 65.6025 0 59.7121 0 52.4355V13.1673C0 6.00715 5.89042 0.000226918 13.1665 0.000226918Z" fill="#1070A5"/>
<path fill-rule="evenodd" clip-rule="evenodd" d="M25.6887 56.4736H34.5299V36.0773H41.0605L42.3665 27.839H34.5299V21.6109C34.5299 19.3006 36.7403 17.9934 38.8502 17.9934H42.6681V11.161L35.8361 10.8609C29.3055 10.458 25.6887 15.5823 25.6887 21.7116V27.839H18.2539V36.0773H25.6887V56.4736Z" fill="white"/>
</svg>
