<svg width="20" height="21" viewBox="0 0 20 21" fill="none" xmlns="http://www.w3.org/2000/svg">
<path d="M15.34 4.42341C15.1027 4.42341 14.8707 4.49365 14.6733 4.62524C14.476 4.75683 14.3222 4.94386 14.2313 5.16268C14.1405 5.38151 14.1168 5.6223 14.1631 5.8546C14.2094 6.0869 14.3236 6.30029 14.4915 6.46777C14.6593 6.63525 14.8731 6.74931 15.1059 6.79551C15.3387 6.84172 15.5799 6.81801 15.7992 6.72737C16.0185 6.63673 16.2059 6.48323 16.3378 6.2863C16.4696 6.08936 16.54 5.85782 16.54 5.62097C16.54 5.30336 16.4136 4.99875 16.1885 4.77417C15.9635 4.54958 15.6583 4.42341 15.34 4.42341ZM19.94 6.83848C19.9206 6.01047 19.7652 5.19125 19.48 4.41343C19.2257 3.74792 18.83 3.1453 18.32 2.64704C17.8248 2.13551 17.2196 1.74306 16.55 1.49938C15.7727 1.20614 14.9508 1.04751 14.12 1.03034C13.06 0.970459 12.72 0.970459 10 0.970459C7.28 0.970459 6.94 0.970459 5.88 1.03034C5.04915 1.04751 4.22734 1.20614 3.45 1.49938C2.78168 1.74553 2.17693 2.13764 1.68 2.64704C1.16743 3.14121 0.774176 3.74524 0.53 4.41343C0.236161 5.18919 0.07721 6.00933 0.0599999 6.83848C-5.58794e-08 7.89633 0 8.23563 0 10.9501C0 13.6646 -5.58794e-08 14.0039 0.0599999 15.0617C0.07721 15.8909 0.236161 16.711 0.53 17.4868C0.774176 18.1549 1.16743 18.759 1.68 19.2531C2.17693 19.7625 2.78168 20.1547 3.45 20.4008C4.22734 20.694 5.04915 20.8527 5.88 20.8699C6.94 20.9297 7.28 20.9297 10 20.9297C12.72 20.9297 13.06 20.9297 14.12 20.8699C14.9508 20.8527 15.7727 20.694 16.55 20.4008C17.2196 20.1571 17.8248 19.7647 18.32 19.2531C18.8322 18.7567 19.2283 18.1536 19.48 17.4868C19.7652 16.7089 19.9206 15.8897 19.94 15.0617C19.94 14.0039 20 13.6646 20 10.9501C20 8.23563 20 7.89633 19.94 6.83848ZM18.14 14.9419C18.1327 15.5754 18.0178 16.2031 17.8 16.7982C17.6403 17.2325 17.3839 17.6249 17.05 17.9458C16.7256 18.2757 16.3332 18.5311 15.9 18.6943C15.3037 18.9116 14.6748 19.0263 14.04 19.0336C13.04 19.0835 12.67 19.0935 10.04 19.0935C7.41 19.0935 7.04 19.0935 6.04 19.0336C5.38089 19.0459 4.72459 18.9446 4.1 18.7342C3.68578 18.5626 3.31136 18.3079 3 17.9857C2.66809 17.6651 2.41484 17.2724 2.26 16.8381C2.01586 16.2345 1.88044 15.5926 1.86 14.9419C1.86 13.944 1.8 13.5747 1.8 10.9501C1.8 8.32545 1.8 7.9562 1.86 6.95824C1.86448 6.31062 1.98295 5.66882 2.21 5.06211C2.38605 4.64088 2.65627 4.26539 3 3.96435C3.30381 3.62122 3.67929 3.3487 4.1 3.16598C4.70955 2.94647 5.352 2.83174 6 2.82667C7 2.82667 7.37 2.76679 10 2.76679C12.63 2.76679 13 2.76679 14 2.82667C14.6348 2.83394 15.2637 2.94867 15.86 3.16598C16.3144 3.33429 16.7223 3.60792 17.05 3.96435C17.3777 4.2709 17.6338 4.64569 17.8 5.06211C18.0223 5.6698 18.1373 6.31134 18.14 6.95824C18.19 7.9562 18.2 8.32545 18.2 10.9501C18.2 13.5747 18.19 13.944 18.14 14.9419ZM10 5.83054C8.98581 5.83251 7.99496 6.13445 7.15265 6.69819C6.31035 7.26193 5.65438 8.06218 5.26763 8.99783C4.88089 9.93348 4.78072 10.9625 4.97979 11.955C5.17886 12.9474 5.66824 13.8587 6.38608 14.5737C7.10392 15.2887 8.01801 15.7753 9.01286 15.972C10.0077 16.1687 11.0387 16.0668 11.9755 15.679C12.9123 15.2912 13.7129 14.635 14.2761 13.7933C14.8394 12.9516 15.14 11.9622 15.14 10.9501C15.1413 10.2766 15.0092 9.60944 14.7512 8.98706C14.4933 8.36468 14.1146 7.79933 13.6369 7.32354C13.1592 6.84776 12.5919 6.47091 11.9678 6.21469C11.3436 5.95846 10.6749 5.82791 10 5.83054ZM10 14.2733C9.34139 14.2733 8.69757 14.0784 8.14995 13.7132C7.60234 13.3481 7.17552 12.8291 6.92348 12.2218C6.67144 11.6146 6.6055 10.9464 6.73398 10.3018C6.86247 9.65712 7.17963 9.06498 7.64533 8.60022C8.11104 8.13546 8.70439 7.81896 9.35035 7.69073C9.99631 7.5625 10.6659 7.62831 11.2743 7.87984C11.8828 8.13137 12.4029 8.55731 12.7688 9.10381C13.1347 9.65031 13.33 10.2928 13.33 10.9501C13.33 11.3865 13.2439 11.8186 13.0765 12.2218C12.9092 12.625 12.6639 12.9914 12.3547 13.3C12.0454 13.6086 11.6784 13.8533 11.2743 14.0203C10.8703 14.1874 10.4373 14.2733 10 14.2733Z" fill="white"/>
</svg>
