<svg width="24" height="24" viewBox="0 0 24 24" fill="none" xmlns="http://www.w3.org/2000/svg">
<path d="M17.2948 5.44888C17.0581 5.44888 16.8267 5.51912 16.6298 5.6507C16.433 5.78229 16.2796 5.96933 16.189 6.18815C16.0984 6.40698 16.0747 6.64776 16.1209 6.88007C16.1671 7.11237 16.2811 7.32575 16.4485 7.49324C16.6158 7.66072 16.8291 7.77477 17.0613 7.82098C17.2935 7.86719 17.5341 7.84347 17.7528 7.75283C17.9715 7.66219 18.1584 7.5087 18.29 7.31176C18.4215 7.11483 18.4917 6.88329 18.4917 6.64644C18.4917 6.32882 18.3656 6.02422 18.1411 5.79964C17.9167 5.57505 17.6122 5.44888 17.2948 5.44888V5.44888ZM21.8828 7.86395C21.8634 7.03594 21.7084 6.21672 21.424 5.4389C21.1704 4.77339 20.7757 4.17077 20.267 3.6725C19.7732 3.16097 19.1695 2.76853 18.5016 2.52485C17.7263 2.23161 16.9066 2.07298 16.078 2.0558C15.0207 1.99593 14.6816 1.99593 11.9687 1.99593C9.25572 1.99593 8.9166 1.99593 7.85936 2.0558C7.03067 2.07298 6.21099 2.23161 5.43567 2.52485C4.76908 2.77099 4.16591 3.1631 3.67027 3.6725C3.15902 4.16667 2.76679 4.7707 2.52325 5.4389C2.23018 6.21466 2.07164 7.0348 2.05447 7.86395C1.99463 8.92179 1.99463 9.2611 1.99463 11.9756C1.99463 14.69 1.99463 15.0293 2.05447 16.0872C2.07164 16.9163 2.23018 17.7365 2.52325 18.5122C2.76679 19.1804 3.15902 19.7844 3.67027 20.2786C4.16591 20.788 4.76908 21.1801 5.43567 21.4263C6.21099 21.7195 7.03067 21.8781 7.85936 21.8953C8.9166 21.9552 9.25572 21.9552 11.9687 21.9552C14.6816 21.9552 15.0207 21.9552 16.078 21.8953C16.9066 21.8781 17.7263 21.7195 18.5016 21.4263C19.1695 21.1826 19.7732 20.7901 20.267 20.2786C20.778 19.7822 21.173 19.1791 21.424 18.5122C21.7084 17.7344 21.8634 16.9152 21.8828 16.0872C21.8828 15.0293 21.9427 14.69 21.9427 11.9756C21.9427 9.2611 21.9427 8.92179 21.8828 7.86395V7.86395ZM20.0875 15.9674C20.0803 16.6009 19.9656 17.2285 19.7484 17.8236C19.5891 18.2579 19.3334 18.6504 19.0003 18.9713C18.6768 19.3011 18.2854 19.5565 17.8533 19.7198C17.2586 19.9371 16.6313 20.0518 15.9982 20.0591C15.0008 20.109 14.6317 20.1189 12.0086 20.1189C9.38538 20.1189 9.01634 20.1189 8.01894 20.0591C7.36154 20.0714 6.70695 19.9701 6.08398 19.7597C5.67084 19.5881 5.29738 19.3333 4.98684 19.0112C4.65579 18.6906 4.4032 18.2978 4.24876 17.8635C4.00525 17.2599 3.87019 16.618 3.8498 15.9674C3.8498 14.9695 3.78995 14.6002 3.78995 11.9756C3.78995 9.35092 3.78995 8.98167 3.8498 7.98371C3.85427 7.33608 3.97243 6.69428 4.19889 6.08758C4.37448 5.66635 4.64399 5.29086 4.98684 4.98982C5.28986 4.64668 5.66436 4.37417 6.08398 4.19145C6.69195 3.97194 7.33273 3.85721 7.97904 3.85214C8.97645 3.85214 9.34549 3.79226 11.9687 3.79226C14.5918 3.79226 14.9609 3.79226 15.9583 3.85214C16.5914 3.8594 17.2187 3.97414 17.8134 4.19145C18.2667 4.35975 18.6735 4.63339 19.0003 4.98982C19.3272 5.29637 19.5826 5.67116 19.7484 6.08758C19.9701 6.69527 20.0848 7.33681 20.0875 7.98371C20.1374 8.98167 20.1474 9.35092 20.1474 11.9756C20.1474 14.6002 20.1374 14.9695 20.0875 15.9674ZM11.9687 6.85601C10.9571 6.85798 9.96883 7.15991 9.12871 7.72366C8.28859 8.2874 7.63432 9.08765 7.24858 10.0233C6.86284 10.9589 6.76294 11.988 6.96149 12.9804C7.16004 13.9729 7.64814 14.8842 8.36412 15.5991C9.08009 16.3141 9.99181 16.8007 10.9841 16.9975C11.9763 17.1942 13.0046 17.0922 13.939 16.7044C14.8734 16.3167 15.6719 15.6605 16.2337 14.8188C16.7955 13.9771 17.0953 12.9877 17.0953 11.9756C17.0966 11.302 16.9648 10.6349 16.7076 10.0125C16.4503 9.39014 16.0725 8.8248 15.5961 8.34901C15.1196 7.87322 14.5539 7.49638 13.9313 7.24015C13.3088 6.98393 12.6418 6.85338 11.9687 6.85601V6.85601ZM11.9687 15.2988C11.3118 15.2988 10.6696 15.1039 10.1234 14.7387C9.57722 14.3736 9.15151 13.8545 8.90013 13.2473C8.64874 12.6401 8.58297 11.9719 8.71112 11.3272C8.83928 10.6826 9.15561 10.0905 9.62011 9.62569C10.0846 9.16093 10.6764 8.84442 11.3207 8.7162C11.965 8.58797 12.6328 8.65378 13.2397 8.90531C13.8466 9.15683 14.3653 9.58278 14.7303 10.1293C15.0952 10.6758 15.29 11.3183 15.29 11.9756C15.29 12.412 15.2041 12.8441 15.0372 13.2473C14.8703 13.6505 14.6256 14.0168 14.3172 14.3254C14.0088 14.634 13.6426 14.8788 13.2397 15.0458C12.8367 15.2128 12.4048 15.2988 11.9687 15.2988V15.2988Z" fill="#9E9E9E"/>
</svg>
