<svg width="20" height="20" viewBox="0 0 20 20" fill="none" xmlns="http://www.w3.org/2000/svg">
<path d="M11.78 7.46409C11.7301 7.46409 11.6807 7.4739 11.6346 7.49296C11.5885 7.51202 11.5466 7.53995 11.5113 7.57517C11.476 7.61038 11.448 7.65219 11.4289 7.6982C11.4098 7.74421 11.4 7.79352 11.4 7.84332V9.50992L10 7.65371C9.96512 7.59722 9.91668 7.5503 9.85906 7.5172C9.80144 7.48409 9.73646 7.46584 9.67 7.46409C9.6201 7.46409 9.57068 7.4739 9.52458 7.49296C9.47848 7.51202 9.43659 7.53995 9.4013 7.57517C9.36601 7.61038 9.33802 7.65219 9.31893 7.6982C9.29983 7.74421 9.29 7.79352 9.29 7.84332V10.6775C9.29 10.7273 9.29983 10.7767 9.31893 10.8227C9.33802 10.8687 9.36601 10.9105 9.4013 10.9457C9.43659 10.9809 9.47848 11.0088 9.52458 11.0279C9.57068 11.047 9.6201 11.0568 9.67 11.0568C9.7199 11.0568 9.76932 11.047 9.81542 11.0279C9.86152 11.0088 9.90341 10.9809 9.9387 10.9457C9.97399 10.9105 10.002 10.8687 10.0211 10.8227C10.0402 10.7767 10.05 10.7273 10.05 10.6775V9.00096L11.44 10.9071C11.4754 10.9602 11.5285 10.9991 11.59 11.0168C11.6361 11.0272 11.6839 11.0272 11.73 11.0168C11.7739 11.0328 11.8206 11.0392 11.8671 11.0358C11.9137 11.0323 11.959 11.0191 12 10.9969L12.1 10.927C12.1702 10.8548 12.2096 10.7582 12.21 10.6576V7.84332C12.2105 7.78903 12.1993 7.73527 12.1771 7.68567C12.155 7.63608 12.1224 7.59181 12.0816 7.55586C12.0409 7.5199 11.9929 7.4931 11.9408 7.47727C11.8888 7.46144 11.8339 7.45695 11.78 7.46409ZM7.2 10.2684H6.14V7.84332C6.14 7.74274 6.09996 7.64629 6.0287 7.57517C5.95744 7.50405 5.86078 7.46409 5.76 7.46409C5.65922 7.46409 5.56256 7.50405 5.4913 7.57517C5.42004 7.64629 5.38 7.74274 5.38 7.84332V10.6775C5.38 10.7781 5.42004 10.8746 5.4913 10.9457C5.56256 11.0168 5.65922 11.0568 5.76 11.0568H7.2C7.30172 11.0568 7.39944 11.0172 7.4723 10.9463C7.54515 10.8755 7.58739 10.779 7.59 10.6775C7.59272 10.6248 7.58464 10.572 7.56626 10.5225C7.54788 10.4729 7.51958 10.4276 7.48309 10.3893C7.4466 10.351 7.40268 10.3206 7.35402 10.2998C7.30535 10.279 7.25294 10.2683 7.2 10.2684ZM8.31 7.46409C8.20828 7.46406 8.11056 7.50369 8.0377 7.57454C7.96485 7.64538 7.92261 7.74184 7.92 7.84332V10.6775C7.92261 10.779 7.96485 10.8755 8.0377 10.9463C8.11056 11.0172 8.20828 11.0568 8.31 11.0568C8.41078 11.0568 8.50744 11.0168 8.5787 10.9457C8.64997 10.8746 8.69 10.7781 8.69 10.6775V7.84332C8.69 7.74274 8.64997 7.64629 8.5787 7.57517C8.50744 7.50405 8.41078 7.46409 8.31 7.46409ZM15.91 0.0192871H4.09C3.00608 0.0219222 1.9673 0.4528 1.20085 1.21769C0.434398 1.98258 0.00264051 3.01924 0 4.10096V15.8969C0.00264051 16.9786 0.434398 18.0153 1.20085 18.7802C1.9673 19.545 3.00608 19.9759 4.09 19.9786H15.91C16.9939 19.9759 18.0327 19.545 18.7992 18.7802C19.5656 18.0153 19.9974 16.9786 20 15.8969V4.10096C19.9974 3.01924 19.5656 1.98258 18.7992 1.21769C18.0327 0.4528 16.9939 0.0219222 15.91 0.0192871ZM16.22 12.2743C16.1806 12.3338 16.1372 12.3904 16.09 12.4439C15.8515 12.7368 15.5835 13.0043 15.29 13.2423C13.29 15.1085 9.93 17.3439 9.48 16.9946C9.03 16.6454 10.12 15.2382 8.95 14.9987C8.86699 15.0092 8.783 15.0092 8.7 14.9987C5.26 14.5197 2.7 12.1146 2.7 9.23049C2.7 5.98711 5.99 3.36246 10.04 3.36246C14.09 3.36246 17.38 5.98711 17.38 9.23049C17.3453 10.346 16.9369 11.4177 16.22 12.2743ZM14.51 7.47407H13C12.8992 7.47407 12.8026 7.51403 12.7313 7.58515C12.66 7.65627 12.62 7.75272 12.62 7.8533V10.6875C12.62 10.7373 12.6298 10.7866 12.6489 10.8326C12.668 10.8786 12.696 10.9205 12.7313 10.9557C12.7666 10.9909 12.8085 11.0188 12.8546 11.0379C12.9007 11.0569 12.9501 11.0667 13 11.0667H14.48C14.5299 11.0667 14.5793 11.0569 14.6254 11.0379C14.6715 11.0188 14.7134 10.9909 14.7487 10.9557C14.784 10.9205 14.812 10.8786 14.8311 10.8326C14.8502 10.7866 14.86 10.7373 14.86 10.6875C14.86 10.5869 14.82 10.4905 14.7487 10.4194C14.6774 10.3482 14.5808 10.3083 14.48 10.3083H13.45V9.70951H14.51C14.6117 9.70691 14.7083 9.66476 14.7793 9.59205C14.8503 9.51934 14.89 9.42182 14.89 9.32031C14.89 9.21973 14.85 9.12327 14.7787 9.05215C14.7074 8.98103 14.6108 8.94108 14.51 8.94108H13.45V8.33232H14.51C14.6108 8.33232 14.7074 8.29237 14.7787 8.22125C14.85 8.15013 14.89 8.05367 14.89 7.9531C14.9057 7.89573 14.9077 7.83549 14.8958 7.77722C14.8839 7.71895 14.8584 7.6643 14.8214 7.61768C14.7844 7.57105 14.737 7.53376 14.6829 7.50881C14.6288 7.48387 14.5696 7.47197 14.51 7.47407Z" fill="white"/>
</svg>
