<svg width="67" height="66" viewBox="0 0 67 66" fill="none" xmlns="http://www.w3.org/2000/svg">
<path fill-rule="evenodd" clip-rule="evenodd" d="M14.0236 0.000237927H53.2453C60.5344 0.000237927 66.4349 5.90054 66.4349 13.191V52.4118C66.4349 59.7003 60.5344 65.6025 53.2453 65.6025H14.0236C6.73448 65.6025 0.833984 59.7003 0.833984 52.4118V13.191C0.833984 5.90054 6.73448 0.000237927 14.0236 0.000237927Z" fill="#1E9544"/>
<path fill-rule="evenodd" clip-rule="evenodd" d="M33.577 13.5166C44.8115 13.5166 53.9936 20.9709 53.9936 30.0445C53.9936 34.9061 51.5091 39.1181 47.4042 42.1433C38.8701 49.489 34.1171 51.5407 34.1171 51.5407C32.2806 52.5142 31.9566 51.9731 32.1726 50.2453C32.3886 49.1652 32.6047 47.7612 32.6047 47.7612C32.8207 46.7877 31.7406 46.5724 31.3083 46.4638H31.0923C20.938 45.4923 13.1602 38.4704 13.1602 30.0445C13.1602 20.9709 22.3423 13.5166 33.577 13.5166Z" fill="white"/>
<path fill-rule="evenodd" clip-rule="evenodd" d="M43.4065 33.1767V31.0164H47.5116V29.3971H43.4065V27.3435H47.5116V25.6157H41.4622V34.7979H47.5116V33.1767H43.4065ZM37.4653 25.6157V31.2336L33.1441 25.6157H31.5237V34.7979H33.4684V29.2885L37.7893 34.7979H39.4097V25.6157H37.4653ZM27.5268 34.7979H29.4713V25.6157H27.5268V34.7979ZM20.0732 34.7979H26.4467V33.07H22.0177V25.6157H20.0732V34.7979Z" fill="#1E9544"/>
</svg>
