<svg width="25" height="25" viewBox="0 0 25 25" fill="none" xmlns="http://www.w3.org/2000/svg">
<path d="M14.0062 9.49396C13.9565 9.49396 13.9072 9.50376 13.8612 9.52282C13.8152 9.54188 13.7734 9.56981 13.7382 9.60503C13.703 9.64024 13.6751 9.68205 13.6561 9.72806C13.637 9.77407 13.6272 9.82338 13.6272 9.87318V11.5398L12.2309 9.68357C12.1961 9.62708 12.1478 9.58017 12.0903 9.54706C12.0328 9.51395 11.968 9.4957 11.9017 9.49396C11.8519 9.49396 11.8027 9.50376 11.7567 9.52282C11.7107 9.54188 11.6689 9.56981 11.6337 9.60503C11.5985 9.64024 11.5706 9.68205 11.5516 9.72806C11.5325 9.77407 11.5227 9.82338 11.5227 9.87318V12.7074C11.5227 12.7572 11.5325 12.8065 11.5516 12.8525C11.5706 12.8985 11.5985 12.9403 11.6337 12.9756C11.6689 13.0108 11.7107 13.0387 11.7567 13.0578C11.8027 13.0768 11.8519 13.0866 11.9017 13.0866V13.0866C11.9515 13.0866 12.0008 13.0768 12.0468 13.0578C12.0927 13.0387 12.1345 13.0108 12.1697 12.9756C12.2049 12.9403 12.2328 12.8985 12.2519 12.8525C12.2709 12.8065 12.2807 12.7572 12.2807 12.7074V11.0308L13.6671 12.9369C13.7024 12.9901 13.7554 13.029 13.8167 13.0467C13.8627 13.057 13.9104 13.057 13.9564 13.0467C14.0001 13.0626 14.0467 13.0691 14.0932 13.0656C14.1396 13.0622 14.1847 13.0489 14.2257 13.0267L14.3254 12.9569C14.3954 12.8846 14.4347 12.7881 14.4351 12.6874V9.87318C14.4356 9.81889 14.4244 9.76513 14.4023 9.71554C14.3802 9.66594 14.3478 9.62167 14.3071 9.58572C14.2664 9.54976 14.2185 9.52297 14.1666 9.50714C14.1147 9.4913 14.06 9.48681 14.0062 9.49396V9.49396ZM9.43813 12.2982H8.38089V9.87318C8.38089 9.7726 8.34096 9.67615 8.26988 9.60503C8.1988 9.53391 8.1024 9.49396 8.00188 9.49396V9.49396C7.90136 9.49396 7.80495 9.53391 7.73387 9.60503C7.66279 9.67615 7.62286 9.7726 7.62286 9.87318V12.7074C7.62286 12.808 7.66279 12.9044 7.73387 12.9756C7.80495 13.0467 7.90136 13.0866 8.00188 13.0866H9.43813C9.5396 13.0867 9.63705 13.047 9.70972 12.9762C9.78239 12.9053 9.82452 12.8089 9.82712 12.7074V12.7074C9.82983 12.6546 9.82177 12.6019 9.80344 12.5523C9.78511 12.5028 9.75688 12.4575 9.72049 12.4192C9.6841 12.3809 9.64029 12.3504 9.59175 12.3296C9.54321 12.3089 9.49094 12.2982 9.43813 12.2982V12.2982ZM10.5453 9.49396C10.4438 9.49392 10.3463 9.53355 10.2737 9.6044C10.201 9.67525 10.1589 9.7717 10.1563 9.87318V12.7074C10.1589 12.8089 10.201 12.9053 10.2737 12.9762C10.3463 13.047 10.4438 13.0867 10.5453 13.0866V13.0866C10.6458 13.0866 10.7422 13.0467 10.8133 12.9756C10.8843 12.9044 10.9243 12.808 10.9243 12.7074V9.87318C10.9243 9.7726 10.8843 9.67615 10.8133 9.60503C10.7422 9.53391 10.6458 9.49396 10.5453 9.49396V9.49396ZM18.1255 2.04915H6.33621C5.2551 2.05178 4.21903 2.48266 3.45457 3.24755C2.69011 4.01244 2.25947 5.0491 2.25684 6.13082V17.9267C2.25947 19.0085 2.69011 20.0451 3.45457 20.81C4.21903 21.5749 5.2551 22.0058 6.33621 22.0084H18.1255C19.2066 22.0058 20.2427 21.5749 21.0072 20.81C21.7716 20.0451 22.2023 19.0085 22.2049 17.9267V6.13082C22.2023 5.0491 21.7716 4.01244 21.0072 3.24755C20.2427 2.48266 19.2066 2.05178 18.1255 2.04915V2.04915ZM18.4347 14.3041C18.3954 14.3636 18.3521 14.4203 18.305 14.4738V14.4738C18.0672 14.7667 17.7998 15.0342 17.5071 15.2722C15.5123 17.1384 12.161 19.3738 11.7122 19.0245C11.2634 18.6752 12.3506 17.2681 11.1836 17.0286C11.1008 17.039 11.017 17.039 10.9342 17.0286C7.50317 16.5496 4.94982 14.1445 4.94982 11.2604C4.94982 8.01697 8.23128 5.39233 12.2708 5.39233C16.3102 5.39233 19.5917 8.01697 19.5917 11.2604C19.5571 12.3759 19.1497 13.4476 18.4347 14.3041V14.3041ZM16.7291 9.50394H15.2231C15.1226 9.50394 15.0261 9.54389 14.9551 9.61501C14.884 9.68613 14.8441 9.78258 14.8441 9.88316V12.7174C14.8441 12.7672 14.8539 12.8165 14.8729 12.8625C14.892 12.9085 14.9199 12.9503 14.9551 12.9855C14.9903 13.0207 15.032 13.0487 15.078 13.0677C15.124 13.0868 15.1733 13.0966 15.2231 13.0966H16.6992C16.749 13.0966 16.7983 13.0868 16.8443 13.0677C16.8903 13.0487 16.932 13.0207 16.9672 12.9855C17.0024 12.9503 17.0303 12.9085 17.0494 12.8625C17.0684 12.8165 17.0782 12.7672 17.0782 12.7174V12.7174C17.0782 12.6168 17.0383 12.5203 16.9672 12.4492C16.8962 12.3781 16.7997 12.3382 16.6992 12.3382H15.6719V11.7394H16.7291C16.8306 11.7368 16.927 11.6946 16.9978 11.6219C17.0686 11.5492 17.1082 11.4517 17.1082 11.3502V11.3502C17.1082 11.2496 17.0682 11.1531 16.9972 11.082C16.9261 11.0109 16.8297 10.9709 16.7291 10.9709H15.6719V10.3622H16.7291C16.8297 10.3622 16.9261 10.3222 16.9972 10.2511C17.0682 10.18 17.1082 10.0835 17.1082 9.98296C17.1238 9.9256 17.1258 9.86535 17.1139 9.80708C17.102 9.74882 17.0766 9.69416 17.0397 9.64754C17.0028 9.60091 16.9555 9.56362 16.9016 9.53867C16.8476 9.51373 16.7885 9.50183 16.7291 9.50394V9.50394Z" fill="#9E9E9E"/>
</svg>
