<svg width="20" height="17" viewBox="0 0 20 17" fill="none" xmlns="http://www.w3.org/2000/svg">
<path d="M17 0.0234375H3C2.20435 0.0234375 1.44129 0.339508 0.87868 0.902117C0.316071 1.46473 0 2.22779 0 3.02344V13.0234C0 13.8191 0.316071 14.5821 0.87868 15.1448C1.44129 15.7074 2.20435 16.0234 3 16.0234H17C17.7956 16.0234 18.5587 15.7074 19.1213 15.1448C19.6839 14.5821 20 13.8191 20 13.0234V3.02344C20 2.22779 19.6839 1.46473 19.1213 0.902117C18.5587 0.339508 17.7956 0.0234375 17 0.0234375ZM16.59 2.02344L10.71 7.90344C10.617 7.99717 10.5064 8.07156 10.3846 8.12233C10.2627 8.1731 10.132 8.19924 10 8.19924C9.86799 8.19924 9.73728 8.1731 9.61542 8.12233C9.49356 8.07156 9.38296 7.99717 9.29 7.90344L3.41 2.02344H16.59ZM18 13.0234C18 13.2887 17.8946 13.543 17.7071 13.7305C17.5196 13.9181 17.2652 14.0234 17 14.0234H3C2.73478 14.0234 2.48043 13.9181 2.29289 13.7305C2.10536 13.543 2 13.2887 2 13.0234V3.43344L7.88 9.31344C8.4425 9.87524 9.205 10.1908 10 10.1908C10.795 10.1908 11.5575 9.87524 12.12 9.31344L18 3.43344V13.0234Z" fill="white"/>
</svg>
