<svg width="25" height="24" viewBox="0 0 25 24" fill="none" xmlns="http://www.w3.org/2000/svg">
<path fill-rule="evenodd" clip-rule="evenodd" d="M18.0503 20.0488C18.9099 20.0488 19.6997 19.7044 20.2734 19.078C20.848 18.4507 21.114 17.6449 21.0213 16.8078L19.6021 3.9512H4.45819L3.03889 16.8078C2.94729 17.6449 3.21219 18.4507 3.78689 19.078C4.36059 19.7044 5.15039 20.0488 6.01089 20.0488H18.0503ZM21.3899 2L23.0014 16.598C23.1537 17.9737 22.6996 19.3522 21.7554 20.3815C20.8122 21.4107 19.4616 22 18.0503 22H6.01089C4.59959 22 3.24809 21.4107 2.30489 20.3815C1.36169 19.3522 0.907493 17.9737 1.05889 16.598L2.67039 2H21.3899ZM12.0303 11C13.6843 11 15.0303 9.654 15.0303 8V6H17.0303V8C17.0303 10.757 14.7873 13 12.0303 13C9.27329 13 7.03029 10.757 7.03029 8V6H9.03029V8C9.03029 9.654 10.3763 11 12.0303 11Z" fill="#979797"/>
</svg>
