<svg width="21" height="20" viewBox="0 0 21 20" fill="none" xmlns="http://www.w3.org/2000/svg">
<path d="M18.4396 11.0236C18.2196 11.0236 17.9896 10.9536 17.7696 10.9036C17.3241 10.8054 16.8863 10.675 16.4596 10.5135C15.9957 10.3448 15.4858 10.3535 15.0279 10.5382C14.5701 10.7228 14.1967 11.0702 13.9796 11.5135L13.7596 11.9635C12.7856 11.4217 11.8906 10.7488 11.0996 9.96355C10.3144 9.17257 9.64143 8.27755 9.09961 7.30355L9.51961 7.02355C9.96298 6.80647 10.3104 6.43308 10.495 5.97524C10.6796 5.5174 10.6884 5.00746 10.5196 4.54355C10.3608 4.11597 10.2305 3.67835 10.1296 3.23355C10.0796 3.01355 10.0396 2.78355 10.0096 2.55355C9.88818 1.84917 9.51924 1.21129 8.96923 0.754789C8.41923 0.298286 7.72431 0.0531586 7.00961 0.0635497H4.00961C3.57864 0.0595032 3.15186 0.148363 2.75832 0.32408C2.36478 0.499797 2.01372 0.758246 1.72904 1.08183C1.44436 1.40542 1.23275 1.78654 1.1086 2.19926C0.984454 2.61198 0.950692 3.04661 1.00961 3.47355C1.54235 7.66293 3.45564 11.5554 6.44726 14.5362C9.43889 17.5169 13.3383 19.4161 17.5296 19.9335H17.9096C18.647 19.9346 19.359 19.6641 19.9096 19.1735C20.226 18.8906 20.4787 18.5437 20.6511 18.1559C20.8235 17.768 20.9116 17.348 20.9096 16.9235V13.9235C20.8974 13.2289 20.6444 12.5601 20.194 12.0312C19.7435 11.5023 19.1234 11.1462 18.4396 11.0236ZM18.9396 17.0236C18.9394 17.1655 18.909 17.3059 18.8504 17.4352C18.7918 17.5645 18.7063 17.6798 18.5996 17.7736C18.4879 17.87 18.3572 17.9421 18.216 17.9851C18.0748 18.0282 17.9262 18.0413 17.7796 18.0236C14.0345 17.5434 10.5558 15.83 7.89233 13.1538C5.22881 10.4776 3.53202 6.99089 3.06961 3.24355C3.0537 3.09707 3.06765 2.94888 3.11061 2.80794C3.15358 2.667 3.22468 2.53624 3.31961 2.42355C3.41332 2.31688 3.52867 2.23139 3.65799 2.17277C3.78731 2.11414 3.92763 2.08373 4.06961 2.08355H7.06961C7.30216 2.07838 7.52924 2.15443 7.71176 2.29862C7.89428 2.44281 8.02082 2.64612 8.06961 2.87355C8.10961 3.14688 8.15961 3.41688 8.21961 3.68355C8.33513 4.21069 8.48887 4.72873 8.67961 5.23355L7.27961 5.88355C7.15991 5.93847 7.05223 6.0165 6.96277 6.11315C6.87331 6.20979 6.80381 6.32316 6.75828 6.44674C6.71275 6.57032 6.69208 6.70168 6.69746 6.83327C6.70284 6.96486 6.73415 7.09409 6.78961 7.21355C8.22881 10.2963 10.7069 12.7744 13.7896 14.2136C14.0331 14.3136 14.3062 14.3136 14.5496 14.2136C14.6743 14.1689 14.7889 14.1 14.8868 14.0107C14.9846 13.9215 15.0638 13.8137 15.1196 13.6936L15.7396 12.2936C16.2566 12.4784 16.7842 12.632 17.3196 12.7535C17.5863 12.8135 17.8563 12.8636 18.1296 12.9036C18.357 12.9523 18.5604 13.0789 18.7045 13.2614C18.8487 13.4439 18.9248 13.671 18.9196 13.9036L18.9396 17.0236Z" fill="white"/>
</svg>
