<svg width="25" height="24" viewBox="0 0 25 24" fill="none" xmlns="http://www.w3.org/2000/svg">
<path fill-rule="evenodd" clip-rule="evenodd" d="M4.50867 10.9084C4.50867 7.363 7.39327 4.4784 10.9387 4.4784C14.4841 4.4784 17.3686 7.363 17.3686 10.9084C17.3686 14.4538 14.4841 17.3383 10.9387 17.3383C7.39327 17.3383 4.50867 14.4538 4.50867 10.9084ZM2.53027 10.9084C2.53027 15.5449 6.30227 19.3168 10.9387 19.3168C12.9013 19.3168 14.709 18.6409 16.1413 17.5097L20.1315 21.5L21.5303 20.1012L17.54 16.111C18.6712 14.6787 19.3471 12.871 19.3471 10.9084C19.3471 6.2719 15.5752 2.5 10.9387 2.5C6.30217 2.5 2.53027 6.272 2.53027 10.9084Z" fill="#979797"/>
</svg>
