<svg width="66" height="66" viewBox="0 0 66 66" fill="none" xmlns="http://www.w3.org/2000/svg">
<path fill-rule="evenodd" clip-rule="evenodd" d="M13.5821 0.000226918H52.8503C60.0124 0.000226918 65.9028 6.00715 65.9028 13.1673V52.4355C65.9028 59.7121 60.0124 65.6025 52.8503 65.6025H13.5821C6.30742 65.6025 0.416992 59.7121 0.416992 52.4355V13.1673C0.416992 6.00715 6.30742 0.000226918 13.5821 0.000226918Z" fill="#1F86C7"/>
<path fill-rule="evenodd" clip-rule="evenodd" d="M33.5644 26.5648C31.8326 17.4398 42.8039 12.0115 49.2709 18.595C49.2709 18.595 52.1598 17.7874 54.6992 16.1701C54.6992 16.1701 53.7751 19.2881 50.6571 21.251C50.6571 21.251 54.1226 20.7889 55.6234 19.8647C55.6234 19.8647 54.1226 22.9827 51.3502 24.1379C52.8509 45.0437 30.3299 57.7467 12.082 47.354C12.082 47.354 21.0904 47.8141 24.9015 43.4264C24.9015 43.4264 19.3587 43.8885 16.5862 37.1904C16.5862 37.1904 18.6655 37.9981 20.7449 36.9594C20.7449 36.9594 14.2759 35.9187 13.6993 28.18C13.6993 28.18 15.7786 29.7973 18.0889 29.2207C18.0889 29.2207 10.9268 24.9475 14.969 17.2088C14.969 17.2088 22.5932 26.9103 33.5644 26.5648Z" fill="white"/>
</svg>
