<svg width="66" height="66" viewBox="0 0 66 66" fill="none" xmlns="http://www.w3.org/2000/svg">
<path fill-rule="evenodd" clip-rule="evenodd" d="M13.5902 0.000237927H52.8109C60.0994 0.000237927 65.9997 5.90054 65.9997 13.191V52.5283C65.9997 59.7003 60.0994 65.6025 52.8109 65.6025H13.5902C6.29971 65.6025 0.399414 59.7003 0.399414 52.5283V13.191C0.399414 5.90054 6.29971 0.000237927 13.5902 0.000237927Z" fill="#047C9D"/>
<path fill-rule="evenodd" clip-rule="evenodd" d="M13.9101 23.6626C15.0929 21.1863 16.7082 18.9253 18.8625 16.9862C21.0149 15.0491 23.4932 13.649 26.076 12.6795C28.7695 11.8185 31.5675 11.3881 34.3676 11.4947C37.0591 11.7099 39.8591 12.3556 42.444 13.649C44.9202 14.8319 47.1812 16.4471 49.1183 18.6015C51.0575 20.7559 52.4575 23.2321 53.3185 25.8149C54.288 28.5084 54.6099 31.3065 54.5033 34.1066C54.288 36.798 53.6423 39.5981 52.4575 42.1829C51.2727 44.6592 49.5508 46.9202 47.3965 48.8573C45.2421 50.7964 42.7658 52.1965 40.183 53.0574C37.5981 54.027 34.6914 54.3489 31.998 54.2422C29.1999 54.027 26.3999 53.3813 23.9236 52.1965C21.4474 51.0117 19.1844 49.2898 17.2473 47.1354C15.3081 44.981 13.9101 42.5048 12.9405 39.922C12.0796 37.3371 11.6471 34.4304 11.7557 31.737C11.971 28.9389 12.6167 26.1388 13.9101 23.6626ZM24.9998 27.7541C24.9998 26.7845 24.9998 25.9236 25.1084 24.954C25.4303 21.6168 26.5065 18.4929 28.0151 15.5862C30.8152 17.2015 33.398 19.2472 35.5524 21.8321C36.0895 22.5864 36.6286 23.3387 37.1677 24.1997C35.3372 25.1692 33.3981 26.0302 31.3523 26.6779C29.1999 27.3236 27.0456 27.6455 24.9998 27.7541ZM29.0913 41.6439C30.9218 40.5677 32.861 39.7067 35.0133 39.059C37.0591 38.4133 39.2134 38.0914 41.2592 37.9828C41.2592 38.9524 41.2592 39.922 41.1506 40.7829C40.8287 44.1201 39.8592 47.244 38.3525 50.1507C35.4438 48.6421 32.861 46.4897 30.8152 43.9049C30.1675 43.1505 29.6304 42.3982 29.0913 41.6439ZM41.1506 35.7218C38.8896 35.8305 36.6286 36.1523 34.3676 36.798C32.1066 37.5524 29.9523 38.5219 28.0151 39.5981C27.2608 38.1981 26.6151 36.5828 26.076 34.9675C25.6455 33.3522 25.3237 31.737 25.1084 30.0151C27.3694 30.0151 29.737 29.5846 31.998 28.9389C34.259 28.2932 36.4134 27.3236 38.3525 26.1388C39.1048 27.6455 39.7505 29.1541 40.183 30.7694C40.7201 32.3847 41.0439 34.1066 41.1506 35.7218ZM44.705 17.4167C43.6268 16.6624 42.6592 16.0167 41.4744 15.4796C39.2134 14.4014 36.7372 13.7557 34.259 13.649C32.7523 13.5404 31.137 13.649 29.737 13.8643C32.5371 15.5862 35.1219 17.7405 37.2743 20.432C37.92 21.1863 38.5677 22.0473 39.1048 22.9082C39.4287 22.5864 39.8591 22.2625 40.183 22.0473C41.9049 20.6473 43.4116 19.1406 44.705 17.4167ZM51.9184 37.3371C52.1337 36.2609 52.3489 35.0761 52.4575 33.9999C52.5642 31.4151 52.2423 28.9389 51.3813 26.4626C50.5184 24.1997 49.227 21.9387 47.5031 20.0015C47.1812 19.5711 46.7507 19.2472 46.4269 18.8167C45.0269 20.6473 43.4116 22.3692 41.6897 23.7692C41.1506 24.1997 40.7201 24.5235 40.2896 24.8474C41.1506 26.5693 41.9049 28.2932 42.444 30.1237C42.9811 31.9522 43.3049 33.8913 43.5202 35.7218C44.0593 35.7218 44.705 35.7218 45.2421 35.8305C47.5031 36.0457 49.766 36.5828 51.9184 37.3371ZM40.6135 50.6878C42.5506 49.8269 44.3811 48.7507 45.9964 47.244C47.9355 45.5201 49.4422 43.4744 50.5184 41.2134C50.8422 40.6743 51.0575 40.1372 51.2727 39.5981C49.227 38.8438 47.1812 38.3067 45.0269 38.0914C44.4897 38.0914 44.0593 37.9828 43.6268 37.9828C43.6268 39.059 43.5202 40.0286 43.4116 40.9981C43.0897 44.4439 42.1201 47.6745 40.6135 50.6878ZM21.6626 48.4268C22.6302 49.0745 23.7084 49.7202 24.7846 50.2573C27.0456 51.3355 29.5218 51.9812 32.1066 52.1965C33.6133 52.1965 35.1219 52.1965 36.6286 51.8726C33.7219 50.1507 31.1371 47.9964 28.9847 45.3049C28.337 44.5506 27.7999 43.6896 27.2608 42.8287C26.8303 43.1505 26.3999 43.4744 26.076 43.7982C24.3541 45.0897 22.9541 46.7049 21.6626 48.4268ZM14.3406 28.3998C14.1253 29.5846 13.9101 30.6608 13.9101 31.8456C13.6948 34.3218 14.1253 36.9066 14.8777 39.2743C15.7406 41.6439 17.032 43.7982 18.7539 45.7354C19.0778 46.1658 19.5083 46.4897 19.8321 46.9202C21.2321 45.0896 22.8455 43.4744 24.676 41.9677C25.1084 41.6439 25.5389 41.2134 26.076 40.8895C25.2151 39.2743 24.4607 37.4438 23.9236 35.6132C23.3845 33.7827 22.954 31.9522 22.8454 30.0151C22.1997 30.0151 21.6626 30.0151 21.0149 29.9065C18.7539 29.6912 16.493 29.1541 14.3406 28.3998ZM20.2626 18.4929C18.3235 20.2168 16.8168 22.2625 15.7406 24.5235C15.5254 25.0626 15.2015 25.5997 14.9863 26.2454C17.032 26.8931 19.0778 27.4302 21.2321 27.6455C21.7693 27.7541 22.1997 27.7541 22.7388 27.7541C22.7388 26.7845 22.7388 25.7083 22.8454 24.7388C23.1693 21.293 24.1389 18.0624 25.6455 15.0491C23.7084 15.91 21.8779 16.9862 20.2626 18.4929Z" fill="white"/>
</svg>
