<svg width="21" height="17" viewBox="0 0 21 17" fill="none" xmlns="http://www.w3.org/2000/svg">
<path d="M13.8715 7.19055L8.98427 4.03698C8.83265 3.94939 8.66065 3.90328 8.48557 3.90328C8.31049 3.90328 8.13849 3.94939 7.98687 4.03698C7.83899 4.12233 7.71548 4.24422 7.62816 4.391C7.54085 4.53778 7.49264 4.70452 7.48817 4.87527V11.1824C7.48946 11.3602 7.53822 11.5345 7.62941 11.6871C7.7206 11.8398 7.85089 11.9653 8.00682 12.0506C8.15187 12.1361 8.31724 12.1809 8.48557 12.1804C8.66225 12.1682 8.83335 12.1134 8.98427 12.0207L13.8715 8.86713C14.0115 8.77665 14.1266 8.65253 14.2063 8.5061C14.286 8.35966 14.3278 8.19558 14.3278 8.02884C14.3278 7.8621 14.286 7.69801 14.2063 7.55158C14.1266 7.40514 14.0115 7.28102 13.8715 7.19055ZM9.48297 9.34615V6.71152L11.4778 8.02884L9.48297 9.34615ZM17.8412 0.554091L16.2952 0.354498C12.4662 -0.114585 8.59428 -0.114585 4.76526 0.354498L3.21928 0.554091C2.47593 0.635034 1.78841 0.987075 1.28799 1.543C0.787569 2.09892 0.509314 2.81978 0.506348 3.56794V12.4897C0.512688 13.2268 0.786125 13.9365 1.27589 14.4871C1.76565 15.0377 2.43847 15.3918 3.16941 15.4836L4.71539 15.6732C6.62816 15.9058 8.55354 16.0191 10.4804 16.0125C12.4076 16.0125 14.333 15.8925 16.2454 15.6533L17.7913 15.4637C18.5223 15.3719 19.1951 15.0178 19.6849 14.4672C20.1746 13.9166 20.4481 13.2068 20.4544 12.4698V3.56794C20.4529 2.82743 20.1816 2.11286 19.6914 1.55808C19.2012 1.0033 18.5257 0.64635 17.7913 0.554091H17.8412ZM18.5095 12.5297C18.5103 12.7811 18.4162 13.0235 18.2461 13.2085C18.076 13.3935 17.8423 13.5075 17.5919 13.5276L16.0459 13.7172C12.3831 14.1763 8.67739 14.1763 5.01461 13.7172L3.46863 13.5276C3.21817 13.5075 2.98452 13.3935 2.8144 13.2085C2.64428 13.0235 2.55022 12.7811 2.55102 12.5297V3.56794C2.56291 3.32039 2.66129 3.08488 2.82899 2.90249C2.99669 2.72011 3.22307 2.60242 3.46863 2.56998L4.96474 2.34045C8.62793 1.88802 12.3328 1.88802 15.996 2.34045L17.542 2.53006C17.7875 2.5625 18.0139 2.68019 18.1816 2.86258C18.3493 3.04496 18.4477 3.28047 18.4596 3.52802L18.5095 12.5297Z" fill="#9E9E9E"/>
</svg>
